<?xml version="1.0" encoding="utf-8"?>
<!-- Generator: Adobe Illustrator 16.0.4, SVG Export Plug-In . SVG Version: 6.00 Build 0)  -->
<!DOCTYPE svg PUBLIC "-//W3C//DTD SVG 1.1//EN" "http://www.w3.org/Graphics/SVG/1.1/DTD/svg11.dtd">
<svg version="1.1" id="Layer_1" xmlns="http://www.w3.org/2000/svg" xmlns:xlink="http://www.w3.org/1999/xlink" x="0px" y="0px"
	 width="64px" height="64px" viewBox="0 0 64 64" enable-background="new 0 0 64 64" xml:space="preserve">
<g>
	<g>
		<path fill="#FFFFFF" d="M53.695,49.17V14.614c0-2.472-2.003-4.475-4.476-4.475H14.664c-2.472,0-4.475,2.003-4.475,4.475V49.17
			c0,2.472,2.003,4.476,4.475,4.476h22.069c6.579,9.688,21.082,5.78,15.588,5.78c-3.545,0-5.397-3.158-6.325-5.78h3.225
			C51.692,53.646,53.695,51.642,53.695,49.17z"/>
		<path fill="#699BC5" d="M50.205,61.511c-2.83,0-9.743-0.654-14.146-6.561H14.664c-3.188,0-5.78-2.593-5.78-5.78V14.614
			c0-3.188,2.593-5.78,5.78-5.78H49.22c3.188,0,5.78,2.593,5.78,5.78V49.17c0,3.188-2.593,5.78-5.78,5.78h-1.247
			c1.103,2.105,2.56,3.171,4.348,3.171c0.493,0,0.877,0.027,1.174,0.085c1.284,0.248,1.35,1.238,1.35,1.434
			C54.844,61.511,51.594,61.511,50.205,61.511z M14.664,11.444c-1.748,0-3.17,1.422-3.17,3.17V49.17c0,1.748,1.422,3.17,3.17,3.17
			h22.76l0.389,0.572c2.686,3.954,6.735,5.327,9.696,5.779c-1.124-1.111-2.055-2.662-2.744-4.61l-0.616-1.741h5.071
			c1.748,0,3.17-1.422,3.17-3.17V14.614c0-1.748-1.422-3.17-3.17-3.17H14.664z"/>
	</g>
	<g>
		<path fill="#FD4F57" d="M26.782,23.382c1.711-2.515,4.275-4.325,8.098-4.325c6.387,0,9.102,4.527,9.102,10.159v11.768
			c0,2.565-1.307,3.369-3.118,3.369h-0.754c-1.911,0-3.218-0.754-3.218-3.369V30.271c0-3.269-1.66-5.28-4.527-5.28
			c-2.514,0-4.426,1.308-5.432,3.219v12.773c0,2.565-1.307,3.369-3.117,3.369h-0.754c-1.912,0-3.219-0.754-3.219-3.369v-20.82
			c0-0.2,1.257-0.804,2.665-0.804C24.318,19.359,26.28,20.213,26.782,23.382z"/>
	</g>
</g>
</svg>
