<?xml version="1.0" encoding="utf-8"?>
<!-- Generator: Adobe Illustrator 16.0.4, SVG Export Plug-In . SVG Version: 6.00 Build 0)  -->
<!DOCTYPE svg PUBLIC "-//W3C//DTD SVG 1.1//EN" "http://www.w3.org/Graphics/SVG/1.1/DTD/svg11.dtd">
<svg version="1.1" id="Layer_1" xmlns="http://www.w3.org/2000/svg" xmlns:xlink="http://www.w3.org/1999/xlink" x="0px" y="0px"
	 width="130px" height="35px" viewBox="0 0 130 35" enable-background="new 0 0 130 35" xml:space="preserve">
<g>
	<g>
		<path fill="#FFFFFF" d="M62.439,21.919V6.275c0-2.57-2.082-4.653-4.652-4.653H6.257c-2.569,0-4.652,2.083-4.652,4.653v15.644
			c0,2.568,2.083,4.652,4.652,4.652h39.65c6.141,9.941,20.656,6.059,15.29,6.059c-3.636,0-5.418-3.463-6.244-6.059h2.834
			C60.357,26.571,62.439,24.487,62.439,21.919z"/>
		<path fill="#699BC5" d="M59.168,34.63c-2.844,0-9.762-0.678-13.94-6.807H6.257c-3.256,0-5.905-2.648-5.905-5.904V6.275
			c0-3.256,2.649-5.906,5.905-5.906h51.53c3.255,0,5.905,2.649,5.905,5.906v15.644c0,3.256-2.649,5.904-5.905,5.904h-1.013
			c0.862,1.861,2.245,3.553,4.422,3.553c0.473,0,0.841,0.027,1.126,0.082c1.233,0.238,1.295,1.189,1.295,1.377
			C63.618,34.63,60.5,34.63,59.168,34.63z M6.257,2.875c-1.875,0-3.4,1.525-3.4,3.4v15.644c0,1.875,1.525,3.4,3.4,3.4h40.349
			l0.367,0.594c2.562,4.148,6.635,5.559,9.598,6.012c-1.18-1.17-2.134-2.844-2.812-4.975l-0.519-1.631h4.546
			c1.875,0,3.4-1.525,3.4-3.4V6.275c0-1.875-1.525-3.4-3.4-3.4H6.257z"/>
	</g>
	<g>
		<path fill="#FD4F57" d="M10.232,10.434c0.743-1.092,1.857-1.879,3.518-1.879c2.774,0,3.954,1.966,3.954,4.413v5.113
			c0,1.113-0.568,1.463-1.354,1.463h-0.328c-0.83,0-1.398-0.328-1.398-1.463v-4.654c0-1.42-0.721-2.294-1.966-2.294
			c-1.093,0-1.923,0.568-2.36,1.398v5.55c0,1.113-0.568,1.463-1.354,1.463H8.616c-0.83,0-1.398-0.328-1.398-1.463V9.036
			c0-0.087,0.546-0.35,1.158-0.35C9.162,8.686,10.014,9.057,10.232,10.434z"/>
		<path fill="#FD4F57" d="M19.343,14.213c0-3.255,2.337-5.659,5.571-5.659c3.146,0,5.31,2.207,5.31,5.331v0.218
			c-0.022,0.546-0.175,0.853-0.743,0.853h-7.363c0.219,1.595,1.442,2.535,3.103,2.535c1.617,0,2.513-0.722,3.015-1.574
			c0.021-0.044,1.485,0.153,1.485,1.376c0,1.159-1.639,2.448-4.61,2.448C21.637,19.741,19.343,17.577,19.343,14.213z M22.118,13.165
			h5.244c-0.065-1.485-1.005-2.469-2.491-2.469C23.429,10.695,22.336,11.723,22.118,13.165z"/>
		<path fill="#FD4F57" d="M33.763,18.692l-2.774-9.111c-0.044-0.197,1.004-0.917,1.878-0.917c0.59,0,1.289,0.306,1.486,1.354
			l1.311,6.358l1.704-5.528c0.197-0.677,0.787-1.005,1.66-1.005c0.874,0,1.442,0.328,1.617,1.005l1.617,5.418l1.311-6.249
			c0.175-1.027,0.852-1.354,1.42-1.354c0.896,0,1.879,0.743,1.813,0.917l-2.709,9.111c-0.197,0.721-0.896,0.895-1.639,0.895
			c-1.092,0-1.507-0.195-1.792-1.047l-1.726-5.375l-1.748,5.375c-0.262,0.852-0.721,1.047-1.77,1.047
			C34.658,19.587,33.981,19.413,33.763,18.692z"/>
		<path fill="#FD4F57" d="M47.592,17.382c0-0.787,0.874-1.333,0.939-1.268c0.743,0.787,1.944,1.42,3.518,1.42
			c1.201,0,1.878-0.35,1.878-1.027c0-0.808-0.852-0.939-2.294-1.246c-1.464-0.327-3.758-0.808-3.758-3.233
			c0-2.075,1.748-3.452,4.457-3.452c2.884,0,4.326,1.049,4.326,2.272c0,0.809-0.939,1.376-1.005,1.311
			c-0.721-0.83-1.879-1.42-3.124-1.42c-1.158,0-1.813,0.371-1.813,1.048c0,0.765,0.852,0.874,2.272,1.202
			c1.507,0.328,3.933,0.83,3.933,3.255c0,2.141-1.77,3.453-4.697,3.453C49.1,19.698,47.592,18.604,47.592,17.382z"/>
	</g>
	<g>
		<path fill="#FD4F57" d="M71.049,10.641c0.678-1.114,1.77-1.945,3.452-1.945c2.774,0,3.954,2.01,3.954,4.501v5.024
			c0,1.115-0.568,1.465-1.354,1.465h-0.328c-0.829,0-1.397-0.328-1.397-1.465v-4.588c0-1.485-0.743-2.359-1.945-2.359
			c-1.463,0-2.381,0.961-2.381,2.491v4.457c0,1.115-0.568,1.465-1.354,1.465h-0.328c-0.83,0-1.398-0.328-1.398-1.465V4.764
			c0-0.109,0.547-0.35,1.158-0.35c0.918,0,1.923,0.481,1.923,2.469V10.641z"/>
		<path fill="#FD4F57" d="M88.024,18.005c-0.743,1.092-1.835,1.879-3.495,1.879c-2.797,0-3.955-1.967-3.955-4.415v-5.156
			c0-1.114,0.568-1.485,1.354-1.485h0.328c0.808,0,1.398,0.35,1.398,1.485v4.697c0,1.42,0.721,2.294,2.01,2.294
			c1.026,0,1.856-0.568,2.294-1.398v-5.593c0-1.114,0.568-1.485,1.376-1.485h0.306c0.831,0,1.398,0.35,1.398,1.485v9.024
			c0,0.109-0.524,0.35-1.157,0.35C89.117,19.687,88.265,19.358,88.024,18.005z"/>
		<path fill="#FD4F57" d="M96.436,18.026v0.195c0,1.115-0.567,1.465-1.354,1.465h-0.328c-0.83,0-1.398-0.328-1.398-1.465V4.764
			c0-0.109,0.547-0.35,1.158-0.35c0.918,0,1.923,0.481,1.923,2.469v3.604c0.721-1.114,1.923-1.792,3.452-1.792
			c2.884,0,4.938,2.163,4.938,5.571c0,3.321-2.032,5.616-4.981,5.616C98.205,19.884,96.981,19.073,96.436,18.026z M101.854,14.29
			c0-1.857-1.113-3.125-2.73-3.125c-1.289,0-2.229,0.677-2.688,1.748v2.075c0.044,1.442,1.201,2.448,2.665,2.448
			C100.762,17.437,101.854,16.168,101.854,14.29z"/>
		<path fill="#FD4F57" d="M109.653,18.026v0.195c0,1.115-0.568,1.465-1.354,1.465h-0.328c-0.83,0-1.398-0.328-1.398-1.465V4.764
			c0-0.109,0.547-0.35,1.158-0.35c0.918,0,1.923,0.481,1.923,2.469v3.604c0.721-1.114,1.922-1.792,3.452-1.792
			c2.884,0,4.938,2.163,4.938,5.571c0,3.321-2.032,5.616-4.981,5.616C111.423,19.884,110.199,19.073,109.653,18.026z M115.071,14.29
			c0-1.857-1.114-3.125-2.73-3.125c-1.289,0-2.229,0.677-2.688,1.748v2.075c0.044,1.442,1.201,2.448,2.665,2.448
			C113.979,17.437,115.071,16.168,115.071,14.29z"/>
		<path fill="#FD4F57" d="M121.407,22.94l1.77-4.02c-0.502-0.064-0.809-0.262-1.005-0.699l-3.67-8.499
			c-0.066-0.175,0.742-0.896,1.682-0.917c0.721,0,1.354,0.349,1.727,1.551l2.315,6.095l2.054-6.073
			c0.371-1.202,1.026-1.573,1.704-1.573c0.874,0,1.726,0.721,1.66,0.874l-4.85,12.606c-0.459,1.158-1.07,1.508-1.748,1.508
			C122.15,23.794,121.319,23.095,121.407,22.94z"/>
	</g>
</g>
</svg>
