<?xml version="1.0" encoding="utf-8"?>
<!-- Generator: Adobe Illustrator 18.0.0, SVG Export Plug-In . SVG Version: 6.00 Build 0)  -->
<!DOCTYPE svg PUBLIC "-//W3C//DTD SVG 1.1//EN" "http://www.w3.org/Graphics/SVG/1.1/DTD/svg11.dtd">
<svg version="1.1" id="Layer_1" xmlns="http://www.w3.org/2000/svg" xmlns:xlink="http://www.w3.org/1999/xlink" x="0px" y="0px"
	 viewBox="0 0 130 35" enable-background="new 0 0 130 35" xml:space="preserve">
<g>
	<g>
		<path fill="#FFFFFF" d="M62.4,21.9V6.3c0-2.6-2.1-4.7-4.7-4.7H6.3c-2.6,0-4.7,2.1-4.7,4.7v15.6c0,2.6,2.1,4.7,4.7,4.7h39.7
			c6.1,9.9,20.7,6.1,15.3,6.1c-3.6,0-5.4-3.5-6.2-6.1h2.8C60.4,26.6,62.4,24.5,62.4,21.9z"/>
		<path fill="#699BC5" d="M59.2,34.6c-2.8,0-9.8-0.7-13.9-6.8h-39c-3.3,0-5.9-2.6-5.9-5.9V6.3C0.4,3,3,0.4,6.3,0.4h51.5
			c3.3,0,5.9,2.6,5.9,5.9v15.6c0,3.3-2.6,5.9-5.9,5.9h-1c0.9,1.9,2.2,3.6,4.4,3.6c0.5,0,0.8,0,1.1,0.1c1.2,0.2,1.3,1.2,1.3,1.4
			C63.6,34.6,60.5,34.6,59.2,34.6z M6.3,2.9c-1.9,0-3.4,1.5-3.4,3.4v15.6c0,1.9,1.5,3.4,3.4,3.4h40.3l0.4,0.6c2.6,4.1,6.6,5.6,9.6,6
			c-1.2-1.2-2.1-2.8-2.8-5l-0.5-1.6h4.5c1.9,0,3.4-1.5,3.4-3.4V6.3c0-1.9-1.5-3.4-3.4-3.4H6.3z"/>
	</g>
	<g>
		<path fill="#FD4F57" d="M10.2,10.4c0.7-1.1,1.9-1.9,3.5-1.9c2.8,0,4,2,4,4.4v5.1c0,1.1-0.6,1.5-1.4,1.5H16c-0.8,0-1.4-0.3-1.4-1.5
			v-4.7c0-1.4-0.7-2.3-2-2.3c-1.1,0-1.9,0.6-2.4,1.4v5.5c0,1.1-0.6,1.5-1.4,1.5H8.6c-0.8,0-1.4-0.3-1.4-1.5V9c0-0.1,0.5-0.4,1.2-0.4
			C9.2,8.7,10,9.1,10.2,10.4z"/>
		<path fill="#FD4F57" d="M19.3,14.2c0-3.3,2.3-5.7,5.6-5.7c3.1,0,5.3,2.2,5.3,5.3v0.2c0,0.5-0.2,0.9-0.7,0.9h-7.4
			c0.2,1.6,1.4,2.5,3.1,2.5c1.6,0,2.5-0.7,3-1.6c0,0,1.5,0.2,1.5,1.4c0,1.2-1.6,2.4-4.6,2.4C21.6,19.7,19.3,17.6,19.3,14.2z
			 M22.1,13.2h5.2c-0.1-1.5-1-2.5-2.5-2.5C23.4,10.7,22.3,11.7,22.1,13.2z"/>
		<path fill="#FD4F57" d="M33.8,18.7L31,9.6c0-0.2,1-0.9,1.9-0.9c0.6,0,1.3,0.3,1.5,1.4l1.3,6.4l1.7-5.5c0.2-0.7,0.8-1,1.7-1
			c0.9,0,1.4,0.3,1.6,1l1.6,5.4l1.3-6.2c0.2-1,0.9-1.4,1.4-1.4c0.9,0,1.9,0.7,1.8,0.9l-2.7,9.1c-0.2,0.7-0.9,0.9-1.6,0.9
			c-1.1,0-1.5-0.2-1.8-1l-1.7-5.4l-1.7,5.4c-0.3,0.9-0.7,1-1.8,1C34.7,19.6,34,19.4,33.8,18.7z"/>
		<path fill="#FD4F57" d="M47.6,17.4c0-0.8,0.9-1.3,0.9-1.3c0.7,0.8,1.9,1.4,3.5,1.4c1.2,0,1.9-0.4,1.9-1c0-0.8-0.9-0.9-2.3-1.2
			c-1.5-0.3-3.8-0.8-3.8-3.2c0-2.1,1.7-3.5,4.5-3.5c2.9,0,4.3,1,4.3,2.3c0,0.8-0.9,1.4-1,1.3c-0.7-0.8-1.9-1.4-3.1-1.4
			c-1.2,0-1.8,0.4-1.8,1c0,0.8,0.9,0.9,2.3,1.2c1.5,0.3,3.9,0.8,3.9,3.3c0,2.1-1.8,3.5-4.7,3.5C49.1,19.7,47.6,18.6,47.6,17.4z"/>
	</g>
	<g>
		<path fill="#FD4F57" d="M71,10.6c0.7-1.1,1.8-1.9,3.5-1.9c2.8,0,4,2,4,4.5v5c0,1.1-0.6,1.5-1.4,1.5h-0.3c-0.8,0-1.4-0.3-1.4-1.5
			v-4.6c0-1.5-0.7-2.4-1.9-2.4c-1.5,0-2.4,1-2.4,2.5v4.5c0,1.1-0.6,1.5-1.4,1.5h-0.3c-0.8,0-1.4-0.3-1.4-1.5V4.8
			c0-0.1,0.5-0.3,1.2-0.3c0.9,0,1.9,0.5,1.9,2.5L71,10.6L71,10.6z"/>
		<path fill="#FD4F57" d="M88,18c-0.7,1.1-1.8,1.9-3.5,1.9c-2.8,0-4-2-4-4.4v-5.2c0-1.1,0.6-1.5,1.4-1.5h0.3c0.8,0,1.4,0.4,1.4,1.5
			V15c0,1.4,0.7,2.3,2,2.3c1,0,1.9-0.6,2.3-1.4v-5.6c0-1.1,0.6-1.5,1.4-1.5h0.3c0.8,0,1.4,0.4,1.4,1.5v9c0,0.1-0.5,0.4-1.2,0.4
			C89.1,19.7,88.3,19.4,88,18z"/>
		<path fill="#FD4F57" d="M96.4,18v0.2c0,1.1-0.6,1.5-1.4,1.5h-0.3c-0.8,0-1.4-0.3-1.4-1.5V4.8c0-0.1,0.5-0.3,1.2-0.3
			c0.9,0,1.9,0.5,1.9,2.5v3.6c0.7-1.1,1.9-1.8,3.5-1.8c2.9,0,4.9,2.2,4.9,5.6c0,3.3-2,5.6-5,5.6C98.2,19.9,97,19.1,96.4,18z
			 M101.9,14.3c0-1.9-1.1-3.1-2.7-3.1c-1.3,0-2.2,0.7-2.7,1.7V15c0,1.4,1.2,2.4,2.7,2.4C100.8,17.4,101.9,16.2,101.9,14.3z"/>
		<path fill="#FD4F57" d="M109.7,18v0.2c0,1.1-0.6,1.5-1.4,1.5H108c-0.8,0-1.4-0.3-1.4-1.5V4.8c0-0.1,0.5-0.3,1.2-0.3
			c0.9,0,1.9,0.5,1.9,2.5v3.6c0.7-1.1,1.9-1.8,3.5-1.8c2.9,0,4.9,2.2,4.9,5.6c0,3.3-2,5.6-5,5.6C111.4,19.9,110.2,19.1,109.7,18z
			 M115.1,14.3c0-1.9-1.1-3.1-2.7-3.1c-1.3,0-2.2,0.7-2.7,1.7V15c0,1.4,1.2,2.4,2.7,2.4C114,17.4,115.1,16.2,115.1,14.3z"/>
		<path fill="#FD4F57" d="M121.4,22.9l1.8-4c-0.5-0.1-0.8-0.3-1-0.7l-3.7-8.5c-0.1-0.2,0.7-0.9,1.7-0.9c0.7,0,1.4,0.3,1.7,1.6
			l2.3,6.1l2.1-6.1c0.4-1.2,1-1.6,1.7-1.6c0.9,0,1.7,0.7,1.7,0.9l-4.8,12.6c-0.5,1.2-1.1,1.5-1.7,1.5
			C122.2,23.8,121.3,23.1,121.4,22.9z"/>
	</g>
</g>
<text transform="matrix(1 0 0 1 85.8061 29.8425)" fill="#666666" font-family="'Arial-BoldMT'" font-size="7.9903">BETA</text>
</svg>
