<?xml version="1.0" encoding="utf-8"?>
<!-- Generator: Adobe Illustrator 18.1.0, SVG Export Plug-In . SVG Version: 6.00 Build 0)  -->
<!DOCTYPE svg PUBLIC "-//W3C//DTD SVG 1.1//EN" "http://www.w3.org/Graphics/SVG/1.1/DTD/svg11.dtd">
<svg version="1.1" id="Lager_1" xmlns="http://www.w3.org/2000/svg" xmlns:xlink="http://www.w3.org/1999/xlink" x="0px" y="0px"
	 viewBox="0 0 200 200" enable-background="new 0 0 200 200" xml:space="preserve">
<g>
	<path fill="none" stroke="#E95059" stroke-width="8" stroke-miterlimit="10" d="M99.2,15.8C52.1,15.8,14,53.9,14,101
		c0,47,38.1,85.1,85.1,85.1c47,0,85.1-38.1,85.1-85.1C184.3,53.9,146.2,15.8,99.2,15.8z"/>
	<g>
		<path fill="#E95059" d="M129.6,95.8L84.4,141H61.7v-22.6L107,73.1L129.6,95.8z M86.4,129.1l-12.8-12.8l-5,5v5.8h7v7h5.8
			L86.4,129.1z M108.7,82.4c-0.3,0-0.7,0.1-0.9,0.4l-29.5,29.5c-0.3,0.3-0.4,0.6-0.4,0.9c0,0.7,0.5,1.2,1.2,1.2
			c0.3,0,0.7-0.1,0.9-0.4l29.5-29.5c0.3-0.3,0.4-0.6,0.4-0.9C109.9,82.9,109.4,82.4,108.7,82.4z M142.2,83.2l-9,9l-22.6-22.6l9-9
			c1.3-1.3,3-2.1,4.9-2.1s3.6,0.8,5,2.1l12.8,12.7c1.3,1.3,2,3.1,2,5S143.4,82,142.2,83.2z"/>
	</g>
</g>
</svg>
