<?xml version="1.0" encoding="utf-8"?>
<!-- Generator: Adobe Illustrator 18.1.0, SVG Export Plug-In . SVG Version: 6.00 Build 0)  -->
<!DOCTYPE svg PUBLIC "-//W3C//DTD SVG 1.1//EN" "http://www.w3.org/Graphics/SVG/1.1/DTD/svg11.dtd">
<svg version="1.1" id="Lager_1" xmlns="http://www.w3.org/2000/svg" xmlns:xlink="http://www.w3.org/1999/xlink" x="0px" y="0px"
	 viewBox="0 0 200 200" enable-background="new 0 0 200 200" xml:space="preserve">
<g>
	<path fill="none" stroke="#E95059" stroke-width="8" stroke-miterlimit="10" d="M99.2,15.8C52.1,15.8,14,53.9,14,101
		c0,47,38.1,85.1,85.1,85.1c47,0,85.1-38.1,85.1-85.1C184.3,53.9,146.2,15.8,99.2,15.8z"/>
</g>
<g>
	<path fill="#E95059" d="M107.3,102l17.6,17.6l7.2-7.2c0.9-0.9,2.3-1.2,3.5-0.7c1.1,0.5,1.9,1.6,1.9,2.9V137c0,1.7-1.4,3.2-3.2,3.2
		h-22.3c-1.3,0-2.4-0.8-2.9-2c-0.5-1.1-0.2-2.5,0.7-3.4l7.2-7.2L99.4,110l-17.6,17.6l7.2,7.2c0.9,0.9,1.2,2.3,0.7,3.4
		c-0.5,1.2-1.6,2-2.9,2H64.4c-1.7,0-3.2-1.4-3.2-3.2v-22.3c0-1.3,0.8-2.4,2-2.9c1.1-0.5,2.5-0.2,3.4,0.7l7.2,7.2L91.4,102L73.8,84.4
		l-7.2,7.2c-0.6,0.6-1.4,0.9-2.2,0.9c-0.4,0-0.8-0.1-1.2-0.2c-1.2-0.5-2-1.6-2-2.9V67c0-1.7,1.4-3.2,3.2-3.2h22.3
		c1.3,0,2.4,0.8,2.9,2c0.5,1.1,0.2,2.5-0.7,3.4l-7.2,7.2l17.6,17.6L117,76.4l-7.2-7.2c-0.9-0.9-1.2-2.3-0.7-3.4c0.5-1.2,1.6-2,2.9-2
		h22.3c1.7,0,3.2,1.4,3.2,3.2v22.3c0,1.3-0.8,2.4-1.9,2.9c-0.4,0.1-0.8,0.2-1.2,0.2c-0.8,0-1.6-0.3-2.2-0.9l-7.2-7.2L107.3,102z"/>
</g>
</svg>
