<?xml version="1.0" encoding="utf-8"?>
<!-- Generator: Adobe Illustrator 18.1.0, SVG Export Plug-In . SVG Version: 6.00 Build 0)  -->
<!DOCTYPE svg PUBLIC "-//W3C//DTD SVG 1.1//EN" "http://www.w3.org/Graphics/SVG/1.1/DTD/svg11.dtd">
<svg version="1.1" id="Lager_1" xmlns="http://www.w3.org/2000/svg" xmlns:xlink="http://www.w3.org/1999/xlink" x="0px" y="0px"
	 viewBox="0 0 200 200" enable-background="new 0 0 200 200" xml:space="preserve">
<g>
	<path fill="none" stroke="#E95059" stroke-width="8" stroke-miterlimit="10" d="M99.2,15.8C52.1,15.8,14,53.9,14,101
		c0,47,38.1,85.1,85.1,85.1c47,0,85.1-38.1,85.1-85.1C184.3,53.9,146.2,15.8,99.2,15.8z"/>
</g>
<g>
	<path fill="#E95059" d="M143.6,130.8c0,2.8-2.2,5-5,5H61.6c-2.8,0-5-2.2-5-5v-16.7c0-2.8,2.2-5,5-5h24.3l7.1,7.1
		c1.9,1.9,4.4,2.9,7.1,2.9s5.2-1,7.1-2.9l7.1-7.1h24.2c2.8,0,5,2.2,5,5V130.8z M125.9,88l-23.4,23.4c-0.6,0.7-1.5,1-2.4,1
		s-1.7-0.3-2.4-1L74.3,88c-1-0.9-1.3-2.4-0.7-3.7c0.5-1.2,1.7-2,3.1-2h13.4V58.9c0-1.8,1.5-3.3,3.3-3.3h13.4c1.8,0,3.3,1.5,3.3,3.3
		v23.4h13.4c1.4,0,2.6,0.8,3.1,2C127.1,85.6,126.8,87,125.9,88z M120.2,122.4c-1.8,0-3.3,1.5-3.3,3.3s1.5,3.3,3.3,3.3
		c1.8,0,3.3-1.5,3.3-3.3S122,122.4,120.2,122.4z M133.5,122.4c-1.8,0-3.3,1.5-3.3,3.3s1.5,3.3,3.3,3.3c1.8,0,3.3-1.5,3.3-3.3
		S135.4,122.4,133.5,122.4z"/>
</g>
</svg>
