<?xml version="1.0" encoding="utf-8"?>
<!-- Generator: Adobe Illustrator 16.0.4, SVG Export Plug-In . SVG Version: 6.00 Build 0)  -->
<!DOCTYPE svg PUBLIC "-//W3C//DTD SVG 1.1//EN" "http://www.w3.org/Graphics/SVG/1.1/DTD/svg11.dtd">
<svg version="1.1" id="Layer_1" xmlns="http://www.w3.org/2000/svg" xmlns:xlink="http://www.w3.org/1999/xlink" x="0px" y="0px"
	 width="75px" height="75px" viewBox="0 0 75 75" enable-background="new 0 0 75 75" xml:space="preserve">
<g>
	<path fill="#1D1D1B" d="M29.261,24.792h3.528l4.715,13.569h0.073l4.678-13.569h3.562v25.631h-3.67V34.835h-0.071L38.439,45.85
		h-1.835l-3.599-11.014h-0.074v15.587h-3.671V24.792z"/>
	<path fill="#1D1D1B" d="M49.275,24.792h5.508c1.009,0,1.896,0.131,2.662,0.395c0.77,0.266,1.465,0.733,2.09,1.404
		c0.623,0.672,1.056,1.458,1.296,2.357c0.238,0.901,0.357,2.12,0.357,3.654c0,1.128-0.065,2.094-0.196,2.898
		c-0.133,0.804-0.415,1.554-0.846,2.251c-0.504,0.84-1.175,1.493-2.017,1.961c-0.84,0.469-1.943,0.701-3.312,0.701h-1.87v10.01
		h-3.672V24.792z M52.947,36.959h1.765c0.742,0,1.318-0.109,1.727-0.323c0.409-0.217,0.707-0.51,0.901-0.883
		c0.19-0.371,0.306-0.822,0.34-1.35c0.035-0.527,0.056-1.115,0.056-1.764c0-0.6-0.021-1.169-0.056-1.709
		c-0.034-0.54-0.146-1.008-0.324-1.403c-0.179-0.397-0.462-0.709-0.845-0.937c-0.386-0.229-0.938-0.342-1.656-0.342h-1.907V36.959z"
		/>
	<path fill="#1D1D1B" d="M59.066,46.749h3.673v3.674h-3.673V46.749z"/>
	<path fill="#1D1D1B" d="M25.804,50.423h-3.672V39.478h-2.195l-3.42,10.945h-3.887l3.959-11.701
		c-1.175-0.647-1.997-1.504-2.465-2.573c-0.468-1.068-0.702-2.345-0.702-3.834c0-5.016,2.161-7.523,6.479-7.523h5.903V50.423z
		 M22.132,28.247h-1.907c-0.672,0-1.211,0.084-1.62,0.253c-0.407,0.167-0.726,0.426-0.955,0.773c-0.226,0.349-0.377,0.77-0.449,1.26
		c-0.072,0.492-0.108,1.062-0.108,1.711c0,0.647,0.037,1.219,0.108,1.709c0.072,0.492,0.211,0.907,0.414,1.242
		c0.205,0.336,0.499,0.595,0.882,0.774c0.384,0.18,0.9,0.27,1.547,0.27h2.088V28.247z"/>
	<path fill="#1D1D1B" d="M37.501,74.174c-20.222,0-36.675-16.451-36.675-36.673c0-20.222,16.453-36.675,36.675-36.675
		c20.222,0,36.673,16.453,36.673,36.675C74.174,57.723,57.723,74.174,37.501,74.174z M37.501,2.224
		c-19.452,0-35.277,15.825-35.277,35.277s15.825,35.275,35.277,35.275c19.45,0,35.275-15.823,35.275-35.275
		S56.951,2.224,37.501,2.224z"/>
</g>
</svg>
