<?xml version="1.0" encoding="utf-8"?>
<!-- Generator: Adobe Illustrator 16.0.4, SVG Export Plug-In . SVG Version: 6.00 Build 0)  -->
<!DOCTYPE svg PUBLIC "-//W3C//DTD SVG 1.1//EN" "http://www.w3.org/Graphics/SVG/1.1/DTD/svg11.dtd">
<svg version="1.1"
	 id="svg2" xmlns:cc="http://creativecommons.org/ns#" xmlns:inkscape="http://www.inkscape.org/namespaces/inkscape" xmlns:dc="http://purl.org/dc/elements/1.1/" xmlns:sodipodi="http://sodipodi.sourceforge.net/DTD/sodipodi-0.dtd" xmlns:svg="http://www.w3.org/2000/svg" xmlns:rdf="http://www.w3.org/1999/02/22-rdf-syntax-ns#" sodipodi:docname="Twitter_bird_logo_2012.svg" inkscape:version="0.48.4 r9939"
	 xmlns="http://www.w3.org/2000/svg" xmlns:xlink="http://www.w3.org/1999/xlink" x="0px" y="0px" width="171.506px"
	 height="171.51px" viewBox="0 0 171.506 171.51" enable-background="new 0 0 171.506 171.51" xml:space="preserve">
<sodipodi:namedview  fit-margin-left="0" pagecolor="#ffffff" fit-margin-top="0" borderopacity="1.0" inkscape:cy="50.181142" inkscape:cx="101.29413" inkscape:zoom="3.7200571" showgrid="false" bordercolor="#666666" id="base" fit-margin-bottom="0" inkscape:window-y="-8" inkscape:window-x="-8" inkscape:window-width="1280" fit-margin-right="0" inkscape:pageopacity="0.0" inkscape:pageshadow="2" inkscape:document-units="px" inkscape:window-height="962" inkscape:current-layer="layer1" inkscape:window-maximized="1">
	</sodipodi:namedview>
<g id="layer1" transform="translate(-282.32053,-396.30734)" inkscape:label="Layer 1" inkscape:groupmode="layer">
	<path id="path5" inkscape:connector-curvature="0" fill="#333333" d="M453.825,428.711c-6.311,2.799-13.092,4.689-20.209,5.54
		c7.266-4.354,12.846-11.249,15.472-19.466c-6.8,4.032-14.329,6.96-22.345,8.538c-6.418-6.839-15.562-11.111-25.685-11.111
		c-19.432,0-35.187,15.754-35.187,35.186c0,2.758,0.311,5.443,0.911,8.019c-29.243-1.467-55.17-15.476-72.524-36.764
		c-3.029,5.196-4.765,11.24-4.765,17.688c0,12.208,6.212,22.978,15.653,29.287c-5.768-0.183-11.193-1.766-15.938-4.4
		c-0.004,0.146-0.004,0.294-0.004,0.442c0,17.048,12.129,31.269,28.226,34.503c-2.952,0.803-6.061,1.231-9.27,1.231
		c-2.268,0-4.472-0.222-6.62-0.631c4.478,13.979,17.472,24.149,32.87,24.435c-12.043,9.438-27.214,15.063-43.7,15.063
		c-2.84,0-5.641-0.167-8.394-0.492c15.572,9.983,34.067,15.812,53.938,15.812c64.721,0,100.111-53.615,100.111-100.116
		c0-1.525-0.032-3.043-0.102-4.553C443.144,441.964,449.109,435.768,453.825,428.711L453.825,428.711z"/>
</g>
<g display="none">
	<rect x="7.433" y="58.385" display="inline" fill="#333333" width="34.181" height="102.137"/>
	<path display="inline" fill="#333333" d="M24.742,9.14c-11.689,0-19.338,7.627-19.338,17.638c0,9.814,7.431,17.653,18.893,17.653
		h0.23c11.909,0,19.325-7.836,19.325-17.653C43.624,16.764,36.433,9.14,24.742,9.14z"/>
	<path display="inline" fill="#333333" d="M94.679,160.522v-57.05c0-3.047,0.223-6.096,1.139-8.275
		c2.465-6.103,8.073-12.422,17.531-12.422c12.357,0,17.307,9.368,17.307,23.103v54.645h34.172v-58.564
		c0-31.389-16.864-45.979-39.354-45.979c-18.147,0-26.253,9.926-30.789,16.884v-14.48H60.516c0.447,9.58,0,102.14,0,102.14H94.679z
		 M94.684,72.866v0.323h-0.221C94.521,73.093,94.604,72.977,94.684,72.866z"/>
</g>
</svg>
